<svg version="1.1" id="Layer_1" xmlns="http://www.w3.org/2000/svg" xmlns:xlink="http://www.w3.org/1999/xlink" x="0px" y="0px"
	 width="100%" viewBox="0 0 1024 1024" enable-background="new 0 0 1024 1024" xml:space="preserve">
<path fill="#FFFFFF" opacity="1.000000" stroke="none" 
	d="
M679.000000,1025.000000 
	C452.666656,1025.000000 226.833328,1025.000000 1.000000,1025.000000 
	C1.000000,683.666687 1.000000,342.333344 1.000000,1.000000 
	C342.333344,1.000000 683.666687,1.000000 1025.000000,1.000000 
	C1025.000000,342.333344 1025.000000,683.666687 1025.000000,1025.000000 
	C909.833313,1025.000000 794.666687,1025.000000 679.000000,1025.000000 
M671.766907,728.187378 
	C672.188232,727.795898 672.609619,727.404358 673.002991,726.995361 
	C673.002991,726.995361 673.009766,727.027222 673.659180,726.871460 
	C675.486145,725.281433 677.313110,723.691406 679.039856,722.039490 
	C679.039856,722.039490 679.095337,722.143311 679.735474,721.931335 
	C686.655090,714.441833 693.574707,706.952332 700.314392,699.254456 
	C700.314392,699.254456 700.540710,699.411255 701.024658,699.051758 
	C701.665466,698.029724 702.306274,697.007751 703.432068,695.664673 
	C703.802795,694.996887 704.173462,694.329163 704.559082,693.533936 
	C704.559082,693.533936 704.649109,693.442505 705.045044,693.184753 
	C705.288818,692.956238 705.417603,692.674988 705.032532,692.161865 
	C705.032532,692.161865 705.414612,692.374451 705.946167,691.981873 
	C722.094604,665.855652 728.301514,637.347168 725.672607,606.940613 
	C723.961792,587.152527 718.591309,568.394470 707.131042,551.688416 
	C707.131042,551.688416 707.492920,551.552002 707.273193,550.904236 
	C704.525513,547.250000 701.777893,543.595703 698.998535,539.993286 
	C698.998535,539.993286 699.056091,539.973633 698.865845,539.324890 
	C695.576843,535.881287 692.287781,532.437683 689.000000,529.000000 
	C689.000000,529.000000 689.005981,529.001221 688.752930,528.381104 
	C678.261658,521.114258 667.770386,513.847412 657.125610,506.688141 
	C657.125610,506.688141 657.309570,506.652130 656.834778,506.108246 
	C653.911987,505.014862 650.989197,503.921478 648.053040,502.921692 
	C648.053040,502.921692 648.146240,502.905792 647.981873,502.384674 
	C641.664062,500.214050 635.346252,498.043427 629.032654,495.953400 
	C629.032654,495.953400 629.110352,495.931519 628.914795,495.451019 
	C627.947266,495.273590 626.979797,495.096161 626.013367,494.989594 
	C626.013367,494.989594 626.076660,494.957550 625.768921,494.417542 
	C624.322632,494.224121 622.791931,494.272156 621.443115,493.800232 
	C606.878418,488.704498 591.611389,487.881683 576.474854,487.024994 
	C547.979126,485.412109 519.686157,487.962494 491.724884,493.593353 
	C478.087250,496.339691 464.596222,499.814117 451.000000,503.000000 
	C451.000000,503.000000 451.040375,502.961304 450.985657,502.111908 
	C450.890198,500.413727 450.794739,498.715576 450.890625,496.222290 
	C450.818359,495.141724 450.746124,494.061188 450.846130,492.060669 
	C450.832733,476.032684 450.819336,460.004730 450.989258,443.067505 
	C451.310364,432.042358 451.631470,421.017212 451.982910,410.013641 
	C451.982910,410.013641 451.994263,409.978241 452.894592,410.024902 
	C494.493530,405.899902 535.496826,398.547180 576.247437,387.559875 
	C574.620178,370.212280 573.017090,353.121948 571.368835,335.550385 
	C532.204407,347.999664 492.856659,355.283783 452.917175,359.950531 
	C452.917175,359.950531 452.789520,360.026001 452.547150,359.650269 
	C452.430450,359.370819 452.268066,359.121094 452.000671,358.951752 
	C452.000671,358.951752 452.078552,358.954834 452.290863,358.045441 
	C452.652466,345.783630 453.033264,333.522308 453.360382,321.259583 
	C453.430817,318.619415 453.225922,315.972107 453.289948,313.331543 
	C453.437836,307.231323 453.672913,301.133179 454.020447,294.588196 
	C454.020447,294.588196 454.058350,294.119812 454.732361,293.705109 
	C456.018646,283.034698 457.304932,272.364288 458.665833,261.074829 
	C438.262878,260.557098 418.054565,260.044342 398.252075,259.541870 
	C398.890259,276.155182 399.729462,292.212860 400.057983,308.280975 
	C400.350250,322.574249 400.076752,336.879059 399.869507,351.932037 
	C399.869507,355.885590 399.869507,359.839111 399.869507,365.034393 
	C377.891541,365.183929 356.460449,365.983551 335.077667,365.291199 
	C313.722992,364.599792 292.416687,362.414703 270.610199,360.850067 
	C271.183563,377.747192 271.761261,394.772247 272.354401,412.252502 
	C291.770050,413.201263 310.675171,414.678833 329.595459,414.907928 
	C352.693726,415.187653 375.804718,414.419189 399.018158,414.586792 
	C399.018158,414.586792 399.239685,415.029083 399.048187,415.943176 
	C399.057922,450.639008 399.067627,485.334869 399.010040,520.008484 
	C399.010040,520.008484 399.031433,520.076050 398.332581,520.288147 
	C375.220001,529.787415 352.932312,540.826965 332.831726,555.962036 
	C332.741333,555.812622 332.650940,555.663269 331.925598,555.779114 
	C326.792145,559.660034 321.658691,563.540955 316.575562,567.539001 
	C316.575562,567.539001 316.458008,567.489746 315.869965,567.788208 
	C308.541321,574.835266 301.212677,581.882263 293.976471,588.969482 
	C293.976471,588.969482 293.922913,588.884094 293.322021,589.184021 
	C286.840912,598.432922 280.359772,607.681824 273.976349,616.944946 
	C273.976349,616.944946 273.909424,616.872375 273.282562,617.185852 
	C271.700500,620.834290 269.948700,624.419434 268.563019,628.140991 
	C256.729004,659.924805 260.951721,689.365662 281.907562,715.971008 
	C281.907562,715.971008 281.613007,716.370667 281.708832,716.798279 
	C281.837463,717.076355 282.041595,717.277954 282.423004,717.548340 
	C282.423004,717.548340 282.528687,717.690796 282.824341,718.256775 
	C286.530487,722.226685 290.236633,726.196533 294.180969,730.721863 
	C295.099640,731.485718 296.018341,732.249573 297.232605,733.618591 
	C324.471466,756.683716 355.513855,769.864685 391.620850,768.870850 
	C406.864136,768.451172 421.157959,764.376709 432.826477,753.119995 
	C433.053314,753.005432 433.180359,752.821838 433.834900,752.258301 
	C443.870392,742.315063 450.207855,730.137207 451.832855,716.364441 
	C453.969238,698.257751 455.433380,679.963135 455.478851,661.745117 
	C455.539795,637.317505 453.829712,612.889648 453.153351,588.454346 
	C452.818481,576.356689 453.095184,564.242188 453.095184,551.803528 
	C460.237061,549.639160 467.998932,547.286926 476.596069,544.952576 
	C490.758331,542.208008 504.833649,538.844971 519.099731,536.838501 
	C556.984192,531.510132 594.311707,532.340759 629.937439,549.191040 
	C629.937439,549.191040 629.681946,549.367920 629.994568,549.833313 
	C630.499268,550.072632 631.003967,550.312012 631.591675,550.494568 
	C631.591675,550.494568 631.601624,550.594604 632.065674,551.033508 
	C641.469116,556.419739 649.067810,563.846680 655.972351,572.037170 
	C655.972351,572.037170 655.875122,572.076538 656.044312,572.759644 
	C663.246399,583.202515 667.437317,594.754272 669.090942,607.319275 
	C671.444397,625.202271 667.802979,641.949280 660.003418,657.973938 
	C660.003418,657.973938 659.942932,657.918579 659.416260,658.313232 
	C658.570740,659.852844 657.725220,661.392456 656.973755,662.962708 
	C656.973755,662.962708 656.918213,662.880859 656.336182,663.218323 
	C650.187805,669.787781 644.039429,676.357239 637.973816,682.981812 
	C637.973816,682.981812 637.933838,682.890808 637.269226,683.082581 
	C627.322205,690.775818 616.059387,695.934875 604.242126,699.912354 
	C574.136230,710.045593 543.021118,711.674500 511.607910,710.639465 
	C510.015533,710.586975 508.419952,710.632751 506.366028,710.632751 
	C507.104431,712.915894 507.656982,714.785767 508.310608,716.619629 
	C513.486694,731.141785 518.869446,745.594543 523.747559,760.215820 
	C525.066284,764.168518 526.928284,765.097168 530.831482,765.128845 
	C555.651489,765.330261 580.279114,763.455505 604.471191,757.854797 
	C613.853882,755.682556 622.894653,752.033203 632.020874,749.023499 
	C632.020874,749.023499 632.026550,749.101013 632.754761,749.076477 
	C634.205261,748.407471 635.655701,747.738525 637.027649,747.021606 
	C637.027649,747.021606 637.057068,747.108704 637.826111,747.080139 
	C641.276855,745.404236 644.727600,743.728333 648.595093,742.024048 
	C648.595093,742.024048 648.989685,741.886780 649.538208,741.973267 
	C649.741028,741.675049 649.943848,741.376831 650.059937,741.052734 
	C650.059937,741.052734 650.083374,741.140076 650.819763,741.061951 
	C653.588501,739.401062 656.357239,737.740112 659.044250,736.055420 
	C659.044250,736.055420 659.055786,736.139771 659.768494,736.034424 
	C662.629028,734.143494 665.489624,732.252625 668.135803,730.174438 
	C668.135803,730.174438 668.303833,730.404175 668.904541,730.217896 
	C669.693298,729.560974 670.481995,728.904114 671.161438,728.194763 
	C671.161438,728.194763 671.187805,728.313049 671.766907,728.187378 
M623.867615,449.633911 
	C629.126770,454.697876 635.355347,457.634644 642.698486,457.652740 
	C671.190735,457.722961 699.683716,457.805176 728.175171,457.650635 
	C740.557434,457.583466 750.095886,450.370422 754.411621,438.822784 
	C758.040466,429.112976 756.228394,420.094604 751.048157,411.597778 
	C738.391785,390.838318 725.564575,370.183014 712.880310,349.440369 
	C711.782654,347.645264 710.568604,345.524384 710.537659,343.537262 
	C710.312195,329.044495 710.315796,314.546600 710.461609,300.052460 
	C710.473389,298.882690 711.881775,297.029144 712.998352,296.698151 
	C716.451050,295.674744 718.902039,294.075012 718.376770,290.144562 
	C717.815857,285.948029 714.743103,285.069641 711.041565,285.080353 
	C696.212341,285.123322 681.382996,285.093445 666.553650,285.089996 
	C664.220947,285.089447 661.888062,285.062439 659.555664,285.089386 
	C656.007446,285.130371 653.248840,286.358032 652.951782,290.336334 
	C652.678223,294.001526 654.878662,295.751587 658.261475,296.368286 
	C659.184082,296.536499 660.073547,296.886688 661.145020,297.202515 
	C661.145020,312.919495 661.220581,328.396057 661.044556,343.869781 
	C661.023743,345.696594 659.846252,347.644196 658.828857,349.305450 
	C646.044800,370.180145 633.072815,390.940674 620.398438,411.881439 
	C612.250610,425.343323 613.390930,437.281311 623.867615,449.633911 
M702.726624,257.135010 
	C692.083862,257.081940 681.441162,257.006531 670.798340,256.986359 
	C666.299438,256.977844 664.395630,259.504883 665.008606,263.738373 
	C665.626221,268.003876 666.455872,272.265381 667.625732,276.406281 
	C667.935913,277.503998 669.825073,278.868988 671.013550,278.892609 
	C680.656921,279.084198 690.307068,279.047943 699.952271,278.898499 
	C701.192444,278.879303 703.298645,278.030487 703.503601,277.197021 
	C704.769409,272.050049 705.843445,266.823120 706.412598,261.561279 
	C706.550476,260.286865 704.551208,258.781311 702.726624,257.135010 
z"/>
<path fill="#0D447F" opacity="1.000000" stroke="none" 
	d="
M399.239685,415.029083 
	C399.239685,415.029083 399.018158,414.586792 398.919495,413.956909 
	C395.899780,413.215759 392.978943,413.013092 390.057739,413.008423 
	C373.999451,412.982758 357.939667,413.139038 341.883087,412.972321 
	C327.278473,412.820740 312.675690,412.393005 298.075470,411.969727 
	C292.454529,411.806763 286.827759,411.476837 281.231476,410.935516 
	C275.847198,410.414673 274.086365,408.074280 273.972870,402.473602 
	C273.905914,399.171326 273.411102,395.875916 273.382874,392.575073 
	C273.299652,382.848602 273.353180,373.120972 273.353180,364.046143 
	C280.285065,364.046143 286.731506,363.677399 293.121979,364.118866 
	C308.944244,365.212006 324.721405,367.343964 340.553253,367.806854 
	C357.128876,368.291473 373.755127,367.527588 390.343933,366.902802 
	C401.028992,366.500305 401.016876,366.171844 401.005646,355.490448 
	C401.004791,354.658386 400.997833,353.826294 401.163086,352.612396 
	C401.550690,351.269501 401.978333,350.303680 401.956665,349.348083 
	C401.339539,322.122040 400.746643,294.894958 399.948151,267.673981 
	C399.827148,263.548859 400.536285,261.691803 405.269714,261.891907 
	C419.703522,262.502075 434.155518,262.714203 448.602386,262.969940 
	C456.126770,263.103149 456.923492,264.277557 455.926788,271.901703 
	C454.964355,279.263336 454.654724,286.710327 454.058350,294.119812 
	C454.058350,294.119812 454.020447,294.588196 453.682739,295.108704 
	C452.895111,305.282776 452.397858,314.934448 452.008606,324.590485 
	C451.615448,334.342865 451.270050,344.098236 451.052704,353.855591 
	C451.015045,355.546875 451.717804,357.254669 452.078552,358.954834 
	C452.078552,358.954834 452.000671,358.951752 452.069580,359.160706 
	C452.265930,359.677368 452.482910,359.896149 452.789520,360.026001 
	C452.789520,360.026001 452.917175,359.950531 453.249176,360.288940 
	C459.174164,360.323486 464.822845,360.414062 470.348572,359.633911 
	C481.955353,357.995117 493.522095,356.034973 505.059113,353.951019 
	C515.953857,351.983124 526.871033,350.026672 537.626343,347.434265 
	C547.083679,345.154663 556.298096,341.879089 565.713196,339.397430 
	C566.833008,339.102295 569.483521,340.790344 569.795044,341.984283 
	C570.661011,345.302979 570.695862,348.843292 571.009155,352.300568 
	C571.800293,361.031281 572.270020,369.803925 573.434509,378.483856 
	C574.319214,385.078674 573.883301,386.382111 567.457703,387.946381 
	C556.850098,390.528748 546.269226,393.235809 535.610535,395.588776 
	C527.732727,397.327850 519.773376,398.739197 511.806122,400.021088 
	C502.348175,401.542816 492.845856,402.791809 483.356964,404.117401 
	C473.870636,405.442627 464.370087,406.669006 454.896851,408.080322 
	C453.858124,408.235107 452.958435,409.323059 451.994263,409.978241 
	C451.994263,409.978241 451.982910,410.013641 451.618378,410.187592 
	C450.836487,412.050995 450.093842,413.733734 450.058929,415.431030 
	C449.918213,422.275574 449.995911,429.124573 449.700134,436.272339 
	C449.272736,437.872986 449.022369,439.173126 449.020996,440.473541 
	C449.002411,457.989594 449.018494,475.505676 449.018677,493.416931 
	C449.017670,494.867035 449.023926,495.921936 449.022339,497.389771 
	C449.689758,499.522247 450.365082,501.241791 451.040375,502.961304 
	C451.040375,502.961304 451.000000,503.000000 451.060425,503.322449 
	C452.080597,503.808289 453.115875,504.291718 453.988403,504.085754 
	C462.979340,501.963806 471.872620,499.359375 480.932922,497.616241 
	C494.062073,495.090332 507.270966,492.906097 520.514893,491.075806 
	C529.020813,489.900360 537.693054,489.955444 546.216553,488.874420 
	C564.342468,486.575531 582.260437,488.653900 600.173523,490.910797 
	C608.840271,492.002686 617.444275,493.592926 626.076660,494.957520 
	C626.076660,494.957550 626.013367,494.989594 626.210510,495.241882 
	C627.308533,495.639984 628.209473,495.785736 629.110352,495.931519 
	C629.110352,495.931519 629.032654,495.953400 629.210632,496.222656 
	C635.641174,498.629913 641.893677,500.767853 648.146240,502.905792 
	C648.146240,502.905792 648.053040,502.921692 648.176880,503.215240 
	C650.802307,505.993469 653.520203,507.858246 657.309570,506.652130 
	C657.309570,506.652130 657.125610,506.688141 657.223022,506.997620 
	C664.529419,512.353699 671.715637,517.433350 678.957825,522.431946 
	C682.250183,524.704346 685.653198,526.816406 689.005981,529.001221 
	C689.005981,529.001221 689.000000,529.000000 688.999084,529.362976 
	C692.350830,533.141846 695.703430,536.557739 699.056091,539.973633 
	C699.056091,539.973633 698.998535,539.993286 699.004883,540.343384 
	C701.194336,544.816040 702.166626,549.884521 707.492920,551.552002 
	C707.492920,551.552002 707.131042,551.688416 707.185852,552.018372 
	C708.489746,555.394531 709.769287,558.428711 710.982178,561.489319 
	C714.316040,569.901672 718.964478,578.065857 720.651001,586.799744 
	C723.865540,603.447205 725.929810,620.223206 723.283386,637.489563 
	C720.719666,654.216431 716.293213,669.973389 707.964478,684.684631 
	C706.659180,686.990112 706.242249,689.798584 705.414612,692.374451 
	C705.414612,692.374451 705.032532,692.161865 704.925781,692.269714 
	C704.762329,692.732544 704.705688,693.087524 704.649109,693.442505 
	C704.649109,693.442505 704.559082,693.533936 704.195068,693.436340 
	C703.214355,694.218262 702.597717,695.097778 701.671631,696.148987 
	C701.088318,697.350891 700.814514,698.381104 700.540710,699.411255 
	C700.540710,699.411255 700.314392,699.254456 700.045288,699.307922 
	C693.649719,705.346985 687.453674,711.264343 681.456360,717.376587 
	C680.276001,718.579590 679.862488,720.534912 679.095337,722.143311 
	C679.095337,722.143311 679.039856,722.039490 678.715088,722.038879 
	C676.596802,723.701294 674.803284,725.364258 673.009766,727.027222 
	C673.009766,727.027222 673.002991,726.995361 672.697632,727.022949 
	C671.990845,727.471375 671.589355,727.892212 671.187805,728.313049 
	C671.187805,728.313049 671.161438,728.194763 670.855957,728.166992 
	C669.801636,728.894226 669.052734,729.649231 668.303833,730.404175 
	C668.303833,730.404175 668.135803,730.174438 667.870178,730.181396 
	C664.754944,732.172119 661.905396,734.155945 659.055786,736.139771 
	C659.055786,736.139771 659.044250,736.055420 658.707397,736.074280 
	C655.608215,737.775452 652.845825,739.457825 650.083374,741.140137 
	C650.083374,741.140076 650.059937,741.052734 649.861694,741.119934 
	C649.351318,741.335999 649.126709,741.569214 648.989685,741.886780 
	C648.989685,741.886780 648.595093,742.024048 647.987854,742.025513 
	C643.939453,743.720947 640.498291,745.414856 637.057068,747.108765 
	C637.057068,747.108704 637.027649,747.021606 636.699463,747.023438 
	C634.923035,747.717224 633.474792,748.409119 632.026550,749.101013 
	C632.026550,749.101013 632.020874,749.023499 631.645386,749.019531 
	C624.229126,750.833069 617.263184,753.050537 610.132019,754.384827 
	C595.234009,757.172363 580.289734,759.785583 565.283569,761.894165 
	C556.623413,763.111084 547.788513,763.026794 539.063599,763.857849 
	C531.843079,764.545593 526.930176,762.698914 525.051941,757.559998 
	C520.234314,744.378967 515.524048,731.157898 510.875549,717.916138 
	C509.329834,713.513062 510.295074,712.159058 514.999329,712.040833 
	C520.574036,711.900818 526.160950,711.848267 531.732300,712.046204 
	C547.884338,712.619934 563.826111,710.920288 579.680359,708.013550 
	C598.349487,704.590759 616.258301,699.061707 632.355164,688.707458 
	C634.552612,687.293945 636.090576,684.854980 637.933838,682.890808 
	C637.933838,682.890808 637.973816,682.981812 638.321289,682.981506 
	C644.557007,682.080505 655.853760,669.638000 656.918213,662.880859 
	C656.918213,662.880859 656.973755,662.962708 657.289246,662.921936 
	C658.384155,661.226990 659.163513,659.572754 659.942932,657.918579 
	C659.942932,657.918579 660.003418,657.973938 660.312622,657.934082 
	C668.450195,650.474182 669.508362,640.091614 670.654358,630.606934 
	C673.014648,611.073486 670.471069,591.936218 659.684021,574.745117 
	C658.924805,573.535278 657.168030,572.951477 655.875122,572.076538 
	C655.875122,572.076538 655.972351,572.037170 655.974609,571.690857 
	C655.663147,570.098755 655.740723,568.480591 654.969482,567.670349 
	C651.205078,563.715698 647.534851,559.549011 643.200439,556.298645 
	C639.813171,553.758545 635.502197,552.450195 631.601624,550.594604 
	C631.601624,550.594604 631.591675,550.494568 631.567688,550.167603 
	C630.923096,549.683105 630.302551,549.525513 629.681946,549.367920 
	C629.681946,549.367920 629.937439,549.191040 629.802856,548.934082 
	C622.061035,543.216492 613.497803,539.759094 604.412292,538.113098 
	C592.566345,535.967041 580.621643,533.906799 568.633911,533.131042 
	C556.634766,532.354553 544.490662,532.649841 532.483826,533.507385 
	C521.647339,534.281433 510.836792,536.067627 500.152191,538.121826 
	C490.989777,539.883362 482.021729,542.655640 472.572876,544.993164 
	C467.867157,546.142273 463.570374,547.336243 459.242554,548.404602 
	C449.578003,550.790344 449.581177,550.763489 450.922699,560.712402 
	C451.055420,561.696655 450.971039,562.709229 451.004578,563.708008 
	C451.333160,573.499695 451.678741,583.290833 451.993744,593.082886 
	C452.672058,614.166565 453.604523,635.246521 453.925751,656.335754 
	C454.223663,675.896545 454.271454,695.414001 450.283020,714.828125 
	C447.995941,725.960815 444.662048,736.164673 437.606049,745.114502 
	C435.835938,747.359741 434.657806,750.071655 433.207642,752.569153 
	C433.180359,752.821838 433.053314,753.005432 432.268921,753.121582 
	C430.119049,753.940491 428.393372,754.572205 426.955841,755.604980 
	C416.992188,762.763428 405.923920,766.765198 393.656189,766.963623 
	C381.242920,767.164551 369.002075,766.550232 356.762756,763.334778 
	C339.561829,758.815857 324.202606,750.950012 309.609222,741.161011 
	C305.439575,738.364075 301.164001,735.724976 296.937012,733.013489 
	C296.018341,732.249573 295.099640,731.485718 294.077484,730.063171 
	C290.626221,725.357239 287.289490,721.300598 283.887238,717.299683 
	C283.761536,717.151917 282.996033,717.548096 282.528687,717.690796 
	C282.528687,717.690796 282.423004,717.548340 282.473938,717.204956 
	C282.220917,716.697937 281.916962,716.534302 281.613007,716.370667 
	C281.613007,716.370667 281.907562,715.971008 281.847778,715.793030 
	C278.626038,709.378235 275.799194,702.941345 272.223572,696.951477 
	C266.876495,687.994141 264.749908,678.181763 264.084686,668.077332 
	C263.078003,652.786011 265.400879,637.994324 272.321564,624.080688 
	C273.384674,621.943481 273.406189,619.288086 273.909424,616.872375 
	C273.909424,616.872375 273.976349,616.944946 274.293457,616.929199 
	C275.060822,616.728882 275.692352,616.675415 275.934479,616.340454 
	C280.783508,609.632019 285.677185,602.952393 290.349213,596.121460 
	C291.852997,593.922791 292.748932,591.308350 293.922913,588.884094 
	C293.922913,588.884094 293.976471,588.969482 294.283997,588.946533 
	C300.005402,584.381775 305.579407,580.013184 310.760010,575.219421 
	C313.067627,573.084106 314.583038,570.092590 316.458008,567.489746 
	C316.458008,567.489746 316.575562,567.539001 316.914185,567.632690 
	C322.355408,563.655579 327.457977,559.584778 332.560547,555.513977 
	C332.650940,555.663269 332.741333,555.812622 333.083954,555.863281 
	C334.555603,555.310303 335.875580,555.026184 336.978333,554.374634 
	C345.048889,549.606445 352.875763,544.382690 361.165283,540.038818 
	C372.519775,534.088928 384.234711,528.829102 395.737183,523.156067 
	C397.027710,522.519592 397.942444,521.121155 399.031433,520.076050 
	C399.031433,520.076050 399.010040,520.008484 399.432617,519.914307 
	C400.235077,518.304565 400.971558,516.778442 400.927185,515.275452 
	C400.800354,510.981506 400.050201,506.693359 400.100769,502.409485 
	C400.205444,493.537750 400.857269,484.671509 400.917725,475.800537 
	C400.956024,470.181183 400.015747,464.554199 400.071136,458.936157 
	C400.200470,445.816833 400.726166,432.701691 400.912842,419.582336 
	C400.934326,418.072845 399.824799,416.547211 399.239685,415.029083 
M355.463654,597.101624 
	C355.157318,597.573303 354.850952,598.044922 354.440674,598.504089 
	C354.440674,598.504089 354.419739,598.606628 353.721313,598.299133 
	C347.277191,604.051147 340.820435,609.789307 334.434326,615.604980 
	C334.174438,615.841675 334.580536,616.809692 334.565125,617.508789 
	C334.565125,617.508789 334.521912,617.633972 333.875488,617.488281 
	C333.618958,618.039978 333.362427,618.591675 333.039764,619.040649 
	C333.039764,619.040649 333.146820,619.099670 332.417816,619.095581 
	C331.125061,621.195251 329.832275,623.294922 328.445251,625.394226 
	C328.445251,625.394226 328.480255,625.481750 327.761414,625.383606 
	C324.723999,630.510803 321.223694,635.425293 318.748413,640.810913 
	C314.036316,651.063171 313.903290,661.930420 316.564545,672.716675 
	C317.277466,675.606201 319.732697,678.065918 321.171570,680.991089 
	C321.171570,680.991089 321.353058,680.698059 321.190277,681.383362 
	C321.616699,681.799194 322.043121,682.215027 322.049042,683.019226 
	C322.186920,682.888672 322.324799,682.758057 322.232361,683.336304 
	C322.951294,684.122864 323.670197,684.909363 324.114197,685.935608 
	C324.114197,685.935608 324.357544,685.663940 324.194580,686.404053 
	C326.493744,693.337280 331.426056,697.543762 338.053284,699.945496 
	C338.053284,699.945496 338.108490,699.839844 338.144867,700.567993 
	C339.796722,701.354431 341.448547,702.140808 343.028534,702.993591 
	C343.028534,702.993591 343.060303,702.901062 343.123383,703.631714 
	C344.548157,704.212219 345.972931,704.792664 347.467224,705.462646 
	C347.467224,705.462646 347.580505,705.459900 347.426880,706.190308 
	C351.643494,707.777527 355.860107,709.364685 360.014404,710.990662 
	C360.014404,710.990662 360.022797,710.917786 360.425537,711.527588 
	C368.975220,715.633301 377.894958,715.706299 386.813660,713.369446 
	C388.770142,712.856812 390.221375,710.415771 391.969513,708.968079 
	C391.969513,708.968079 391.866516,708.900208 392.677826,708.964905 
	C393.987701,708.462891 396.048248,708.311829 396.475769,707.397400 
	C398.207214,703.693726 400.126740,699.855957 400.706665,695.882324 
	C401.898956,687.712463 402.894867,679.422180 402.878174,671.183777 
	C402.813416,639.247375 402.319458,607.311768 401.985443,575.375916 
	C401.978485,574.709778 402.197205,573.923096 401.917694,573.404358 
	C401.440308,572.518433 400.651062,571.800415 399.474121,570.978088 
	C399.302063,570.957703 399.130005,570.937317 398.600098,570.464966 
	C397.752502,571.015320 396.904938,571.565613 396.036530,572.019287 
	C396.036530,572.019287 396.108612,572.086975 395.367188,572.023254 
	C394.757050,572.537720 394.146881,573.052124 393.435425,573.539246 
	C393.435425,573.539246 393.380646,573.628723 392.679657,573.301941 
	C390.799316,574.559692 388.918976,575.817383 387.019135,577.000000 
	C387.019135,577.000000 387.078064,577.050476 386.444214,577.038513 
	C385.979156,577.405029 385.514099,577.771545 385.052368,578.050781 
	C385.052368,578.050781 385.126831,578.096375 384.360413,578.028809 
	C382.117249,579.529358 379.874115,581.029907 377.498474,582.574524 
	C377.498474,582.574524 377.395935,582.669312 376.670563,582.334717 
	C373.630463,583.140747 369.693970,582.716736 369.451172,587.521423 
	C369.451172,587.521423 369.394958,587.617737 368.663605,587.275452 
	C366.473358,588.897522 364.283112,590.519531 362.040802,592.044556 
	C362.040802,592.044556 362.139099,592.094238 361.413574,592.099304 
	C360.308716,593.116211 359.203857,594.133057 358.048615,595.051331 
	C358.048615,595.051331 358.148010,595.100159 357.460999,595.127930 
	C357.005188,595.798462 356.549377,596.468994 356.038696,597.031555 
	C356.038696,597.031555 356.136871,597.102478 355.463654,597.101624 
z"/>
<path fill="#D05B42" opacity="1.000000" stroke="none" 
	d="
M623.618042,449.383911 
	C613.390930,437.281311 612.250610,425.343323 620.398438,411.881439 
	C633.072815,390.940674 646.044800,370.180145 658.828857,349.305450 
	C659.846252,347.644196 661.023743,345.696594 661.044556,343.869781 
	C661.220581,328.396057 661.145020,312.919495 661.145020,297.202515 
	C660.073547,296.886688 659.184082,296.536499 658.261475,296.368286 
	C654.878662,295.751587 652.678223,294.001526 652.951782,290.336334 
	C653.248840,286.358032 656.007446,285.130371 659.555664,285.089386 
	C661.888062,285.062439 664.220947,285.089447 666.553650,285.089996 
	C681.382996,285.093445 696.212341,285.123322 711.041565,285.080353 
	C714.743103,285.069641 717.815857,285.948029 718.376770,290.144562 
	C718.902039,294.075012 716.451050,295.674744 712.998352,296.698151 
	C711.881775,297.029144 710.473389,298.882690 710.461609,300.052460 
	C710.315796,314.546600 710.312195,329.044495 710.537659,343.537262 
	C710.568604,345.524384 711.782654,347.645264 712.880310,349.440369 
	C725.564575,370.183014 738.391785,390.838318 751.048157,411.597778 
	C756.228394,420.094604 758.040466,429.112976 754.411621,438.822784 
	C750.095886,450.370422 740.557434,457.583466 728.175171,457.650635 
	C699.683716,457.805176 671.190735,457.722961 642.698486,457.652740 
	C635.355347,457.634644 629.126770,454.697876 623.618042,449.383911 
M657.993225,372.998718 
	C657.993225,372.998718 657.946350,372.929932 657.372742,373.196991 
	C656.891663,374.114288 656.410645,375.031586 655.994995,376.001984 
	C655.994995,376.001984 655.943237,375.935974 655.369263,376.265686 
	C654.529419,377.807770 653.689575,379.349884 652.937988,381.005737 
	C652.937988,381.005737 652.883118,380.872650 652.307739,381.235168 
	C644.713318,393.575897 636.901611,405.789429 629.582581,418.291351 
	C621.482178,432.127777 629.300415,446.122833 645.171631,446.230713 
	C672.503418,446.416565 699.838440,446.436737 727.169983,446.232544 
	C741.407532,446.126190 749.656128,432.904449 742.970947,420.381653 
	C737.350098,409.852692 730.478943,399.991241 724.126465,390.007446 
	C724.126465,390.007446 724.195374,389.844666 724.076172,389.155457 
	C718.768311,380.663300 713.460449,372.171143 708.095154,363.288544 
	C708.095154,363.288544 707.835938,362.991028 707.837769,362.483398 
	C707.588501,362.277405 707.339172,362.071411 707.049561,361.972961 
	C707.049561,361.972961 707.138733,361.900543 707.064392,361.204773 
	C705.431091,358.687286 703.797729,356.169800 702.105225,353.272461 
	C702.105225,353.272461 701.841736,352.992584 701.816345,352.494965 
	C701.673462,352.157257 701.420776,351.960754 701.015137,351.989441 
	C701.015137,351.989441 701.093079,351.936188 701.026367,351.261353 
	C700.344727,349.840790 699.663086,348.420227 699.092407,346.117157 
	C699.002197,343.751556 698.911987,341.385956 699.016418,338.191498 
	C699.472473,333.735931 696.517029,334.739044 693.185547,334.877563 
	C691.810608,334.853668 690.435608,334.829742 688.649475,334.301117 
	C688.075745,332.605286 686.771545,330.704895 687.170227,329.281342 
	C687.464539,328.230499 689.923706,327.420074 691.518799,327.185516 
	C693.881897,326.838074 696.333923,327.095612 698.789307,327.095612 
	C698.789307,323.737793 698.789307,321.170868 698.789307,318.078796 
	C695.686707,318.078796 692.802490,318.510559 690.158936,317.900208 
	C688.797363,317.585815 687.268250,315.532196 686.977783,314.038361 
	C686.822449,313.239227 688.981689,311.432617 690.372009,311.028076 
	C692.208862,310.493500 694.394714,311.211731 696.276245,310.755310 
	C697.319458,310.502228 698.048462,308.953400 699.078125,307.113617 
	C699.012695,304.746979 698.947266,302.380341 699.074829,299.184753 
	C699.459290,296.110046 697.404968,296.149536 695.286133,296.159332 
	C689.140137,296.187744 682.984436,296.380371 676.851379,296.098267 
	C672.941406,295.918427 672.129822,297.539307 672.179810,301.072632 
	C672.341919,312.532104 672.028564,323.999329 672.257141,335.456421 
	C672.408020,343.016907 672.312927,350.383881 667.303284,357.130035 
	C667.088684,357.384766 666.989563,357.678497 666.421021,358.349915 
	C664.229675,362.196228 662.038391,366.042542 659.945068,370.001923 
	C659.945068,370.001923 659.879761,369.867340 659.315796,370.158539 
	C658.852051,371.089630 658.388245,372.020721 657.993225,372.998718 
z"/>
<path fill="#D2583E" opacity="1.000000" stroke="none" 
	d="
M703.130615,257.258545 
	C704.551208,258.781311 706.550476,260.286865 706.412598,261.561279 
	C705.843445,266.823120 704.769409,272.050049 703.503601,277.197021 
	C703.298645,278.030487 701.192444,278.879303 699.952271,278.898499 
	C690.307068,279.047943 680.656921,279.084198 671.013550,278.892609 
	C669.825073,278.868988 667.935913,277.503998 667.625732,276.406281 
	C666.455872,272.265381 665.626221,268.003876 665.008606,263.738373 
	C664.395630,259.504883 666.299438,256.977844 670.798340,256.986359 
	C681.441162,257.006531 692.083862,257.081940 703.130615,257.258545 
z"/>
<path fill="#21476E" opacity="1.000000" stroke="none" 
	d="
M400.993713,352.994232 
	C400.997833,353.826294 401.004791,354.658386 401.005646,355.490448 
	C401.016876,366.171844 401.028992,366.500305 390.343933,366.902802 
	C373.755127,367.527588 357.128876,368.291473 340.553253,367.806854 
	C324.721405,367.343964 308.944244,365.212006 293.121979,364.118866 
	C286.731506,363.677399 280.285065,364.046143 273.353180,364.046143 
	C273.353180,373.120972 273.299652,382.848602 273.382874,392.575073 
	C273.411102,395.875916 273.905914,399.171326 273.972870,402.473602 
	C274.086365,408.074280 275.847198,410.414673 281.231476,410.935516 
	C286.827759,411.476837 292.454529,411.806763 298.075470,411.969727 
	C312.675690,412.393005 327.278473,412.820740 341.883087,412.972321 
	C357.939667,413.139038 373.999451,412.982758 390.057739,413.008423 
	C392.978943,413.013092 395.899780,413.215759 398.865479,413.715546 
	C375.804718,414.419189 352.693726,415.187653 329.595459,414.907928 
	C310.675171,414.678833 291.770050,413.201263 272.354401,412.252502 
	C271.761261,394.772247 271.183563,377.747192 270.610199,360.850067 
	C292.416687,362.414703 313.722992,364.599792 335.077667,365.291199 
	C356.460449,365.983551 377.891541,365.183929 399.869507,365.034393 
	C399.869507,359.839111 399.869507,355.885590 399.966492,351.831421 
	C400.373566,352.151978 400.683655,352.573090 400.993713,352.994232 
z"/>
<path fill="#274C71" opacity="1.000000" stroke="none" 
	d="
M452.444427,410.001587 
	C452.958435,409.323059 453.858124,408.235107 454.896851,408.080322 
	C464.370087,406.669006 473.870636,405.442627 483.356964,404.117401 
	C492.845856,402.791809 502.348175,401.542816 511.806122,400.021088 
	C519.773376,398.739197 527.732727,397.327850 535.610535,395.588776 
	C546.269226,393.235809 556.850098,390.528748 567.457703,387.946381 
	C573.883301,386.382111 574.319214,385.078674 573.434509,378.483856 
	C572.270020,369.803925 571.800293,361.031281 571.009155,352.300568 
	C570.695862,348.843292 570.661011,345.302979 569.795044,341.984283 
	C569.483521,340.790344 566.833008,339.102295 565.713196,339.397430 
	C556.298096,341.879089 547.083679,345.154663 537.626343,347.434265 
	C526.871033,350.026672 515.953857,351.983124 505.059113,353.951019 
	C493.522095,356.034973 481.955353,357.995117 470.348572,359.633911 
	C464.822845,360.414062 459.174164,360.323486 453.290924,360.350220 
	C492.856659,355.283783 532.204407,347.999664 571.368835,335.550385 
	C573.017090,353.121948 574.620178,370.212280 576.247437,387.559875 
	C535.496826,398.547180 494.493530,405.899902 452.444427,410.001587 
z"/>
<path fill="#23486D" opacity="1.000000" stroke="none" 
	d="
M637.601562,682.986694 
	C636.090576,684.854980 634.552612,687.293945 632.355164,688.707458 
	C616.258301,699.061707 598.349487,704.590759 579.680359,708.013550 
	C563.826111,710.920288 547.884338,712.619934 531.732300,712.046204 
	C526.160950,711.848267 520.574036,711.900818 514.999329,712.040833 
	C510.295074,712.159058 509.329834,713.513062 510.875549,717.916138 
	C515.524048,731.157898 520.234314,744.378967 525.051941,757.559998 
	C526.930176,762.698914 531.843079,764.545593 539.063599,763.857849 
	C547.788513,763.026794 556.623413,763.111084 565.283569,761.894165 
	C580.289734,759.785583 595.234009,757.172363 610.132019,754.384827 
	C617.263184,753.050537 624.229126,750.833069 631.680542,749.036133 
	C622.894653,752.033203 613.853882,755.682556 604.471191,757.854797 
	C580.279114,763.455505 555.651489,765.330261 530.831482,765.128845 
	C526.928284,765.097168 525.066284,764.168518 523.747559,760.215820 
	C518.869446,745.594543 513.486694,731.141785 508.310608,716.619629 
	C507.656982,714.785767 507.104431,712.915894 506.366028,710.632751 
	C508.419952,710.632751 510.015533,710.586975 511.607910,710.639465 
	C543.021118,711.674500 574.136230,710.045593 604.242126,699.912354 
	C616.059387,695.934875 627.322205,690.775818 637.601562,682.986694 
z"/>
<path fill="#274C71" opacity="1.000000" stroke="none" 
	d="
M433.521240,752.413696 
	C434.657806,750.071655 435.835938,747.359741 437.606049,745.114502 
	C444.662048,736.164673 447.995941,725.960815 450.283020,714.828125 
	C454.271454,695.414001 454.223663,675.896545 453.925751,656.335754 
	C453.604523,635.246521 452.672058,614.166565 451.993744,593.082886 
	C451.678741,583.290833 451.333160,573.499695 451.004578,563.708008 
	C450.971039,562.709229 451.055420,561.696655 450.922699,560.712402 
	C449.581177,550.763489 449.578003,550.790344 459.242554,548.404602 
	C463.570374,547.336243 467.867157,546.142273 472.922791,544.996094 
	C474.365265,544.969543 475.063049,544.952087 475.760803,544.934631 
	C467.998932,547.286926 460.237061,549.639160 453.095184,551.803528 
	C453.095184,564.242188 452.818481,576.356689 453.153351,588.454346 
	C453.829712,612.889648 455.539795,637.317505 455.478851,661.745117 
	C455.433380,679.963135 453.969238,698.257751 451.832855,716.364441 
	C450.207855,730.137207 443.870392,742.315063 433.521240,752.413696 
z"/>
<path fill="#23486D" opacity="1.000000" stroke="none" 
	d="
M401.163086,352.612396 
	C400.683655,352.573090 400.373566,352.151978 400.058228,351.454803 
	C400.076752,336.879059 400.350250,322.574249 400.057983,308.280975 
	C399.729462,292.212860 398.890259,276.155182 398.252075,259.541870 
	C418.054565,260.044342 438.262878,260.557098 458.665833,261.074829 
	C457.304932,272.364288 456.018646,283.034698 454.395355,293.912476 
	C454.654724,286.710327 454.964355,279.263336 455.926788,271.901703 
	C456.923492,264.277557 456.126770,263.103149 448.602386,262.969940 
	C434.155518,262.714203 419.703522,262.502075 405.269714,261.891907 
	C400.536285,261.691803 399.827148,263.548859 399.948151,267.673981 
	C400.746643,294.894958 401.339539,322.122040 401.956665,349.348083 
	C401.978333,350.303680 401.550690,351.269501 401.163086,352.612396 
z"/>
<path fill="#1D4369" opacity="1.000000" stroke="none" 
	d="
M625.922791,494.687531 
	C617.444275,493.592926 608.840271,492.002686 600.173523,490.910797 
	C582.260437,488.653900 564.342468,486.575531 546.216553,488.874420 
	C537.693054,489.955444 529.020813,489.900360 520.514893,491.075806 
	C507.270966,492.906097 494.062073,495.090332 480.932922,497.616241 
	C471.872620,499.359375 462.979340,501.963806 453.988403,504.085754 
	C453.115875,504.291718 452.080597,503.808289 451.079865,503.301941 
	C464.596222,499.814117 478.087250,496.339691 491.724884,493.593353 
	C519.686157,487.962494 547.979126,485.412109 576.474854,487.024994 
	C591.611389,487.881683 606.878418,488.704498 621.443115,493.800232 
	C622.791931,494.272156 624.322632,494.224121 625.922791,494.687531 
z"/>
<path fill="#23486D" opacity="1.000000" stroke="none" 
	d="
M476.178436,544.943604 
	C475.063049,544.952087 474.365265,544.969543 473.317627,544.983948 
	C482.021729,542.655640 490.989777,539.883362 500.152191,538.121826 
	C510.836792,536.067627 521.647339,534.281433 532.483826,533.507385 
	C544.490662,532.649841 556.634766,532.354553 568.633911,533.131042 
	C580.621643,533.906799 592.566345,535.967041 604.412292,538.113098 
	C613.497803,539.759094 622.061035,543.216492 629.692627,549.043579 
	C594.311707,532.340759 556.984192,531.510132 519.099731,536.838501 
	C504.833649,538.844971 490.758331,542.208008 476.178436,544.943604 
z"/>
<path fill="#1D4369" opacity="1.000000" stroke="none" 
	d="
M705.680420,692.178162 
	C706.242249,689.798584 706.659180,686.990112 707.964478,684.684631 
	C716.293213,669.973389 720.719666,654.216431 723.283386,637.489563 
	C725.929810,620.223206 723.865540,603.447205 720.651001,586.799744 
	C718.964478,578.065857 714.316040,569.901672 710.982178,561.489319 
	C709.769287,558.428711 708.489746,555.394531 707.373962,551.973633 
	C718.591309,568.394470 723.961792,587.152527 725.672607,606.940613 
	C728.301514,637.347168 722.094604,665.855652 705.680420,692.178162 
z"/>
<path fill="#274C71" opacity="1.000000" stroke="none" 
	d="
M297.084808,733.316040 
	C301.164001,735.724976 305.439575,738.364075 309.609222,741.161011 
	C324.202606,750.950012 339.561829,758.815857 356.762756,763.334778 
	C369.002075,766.550232 381.242920,767.164551 393.656189,766.963623 
	C405.923920,766.765198 416.992188,762.763428 426.955841,755.604980 
	C428.393372,754.572205 430.119049,753.940491 432.097961,753.151123 
	C421.157959,764.376709 406.864136,768.451172 391.620850,768.870850 
	C355.513855,769.864685 324.471466,756.683716 297.084808,733.316040 
z"/>
<path fill="#274C71" opacity="1.000000" stroke="none" 
	d="
M273.596008,617.029114 
	C273.406189,619.288086 273.384674,621.943481 272.321564,624.080688 
	C265.400879,637.994324 263.078003,652.786011 264.084686,668.077332 
	C264.749908,678.181763 266.876495,687.994141 272.223572,696.951477 
	C275.799194,702.941345 278.626038,709.378235 281.694305,715.989563 
	C260.951721,689.365662 256.729004,659.924805 268.563019,628.140991 
	C269.948700,624.419434 271.700500,620.834290 273.596008,617.029114 
z"/>
<path fill="#23486D" opacity="1.000000" stroke="none" 
	d="
M655.959717,572.418091 
	C657.168030,572.951477 658.924805,573.535278 659.684021,574.745117 
	C670.471069,591.936218 673.014648,611.073486 670.654358,630.606934 
	C669.508362,640.091614 668.450195,650.474182 660.272827,657.924133 
	C667.802979,641.949280 671.444397,625.202271 669.090942,607.319275 
	C667.437317,594.754272 663.246399,583.202515 655.959717,572.418091 
z"/>
<path fill="#1D4369" opacity="1.000000" stroke="none" 
	d="
M399.143921,415.486145 
	C399.824799,416.547211 400.934326,418.072845 400.912842,419.582336 
	C400.726166,432.701691 400.200470,445.816833 400.071136,458.936157 
	C400.015747,464.554199 400.956024,470.181183 400.917725,475.800537 
	C400.857269,484.671509 400.205444,493.537750 400.100769,502.409485 
	C400.050201,506.693359 400.800354,510.981506 400.927185,515.275452 
	C400.971558,516.778442 400.235077,518.304565 399.466248,519.925415 
	C399.067627,485.334869 399.057922,450.639008 399.143921,415.486145 
z"/>
<path fill="#1D4369" opacity="1.000000" stroke="none" 
	d="
M398.682007,520.182129 
	C397.942444,521.121155 397.027710,522.519592 395.737183,523.156067 
	C384.234711,528.829102 372.519775,534.088928 361.165283,540.038818 
	C352.875763,544.382690 345.048889,549.606445 336.978333,554.374634 
	C335.875580,555.026184 334.555603,555.310303 332.962830,555.631104 
	C352.932312,540.826965 375.220001,529.787415 398.682007,520.182129 
z"/>
<path fill="#1D4369" opacity="1.000000" stroke="none" 
	d="
M449.025970,493.021790 
	C449.018494,475.505676 449.002411,457.989594 449.020996,440.473541 
	C449.022369,439.173126 449.272736,437.872986 449.704254,436.699921 
	C450.269409,439.210327 450.537659,441.593536 450.805969,443.976746 
	C450.819336,460.004730 450.832733,476.032684 450.485046,492.524109 
	C449.757935,492.998962 449.391968,493.010376 449.025970,493.021790 
z"/>
<path fill="#23486D" opacity="1.000000" stroke="none" 
	d="
M452.184692,358.500122 
	C451.717804,357.254669 451.015045,355.546875 451.052704,353.855591 
	C451.270050,344.098236 451.615448,334.342865 452.008606,324.590485 
	C452.397858,314.934448 452.895111,305.282776 453.608826,295.331696 
	C453.672913,301.133179 453.437836,307.231323 453.289948,313.331543 
	C453.225922,315.972107 453.430817,318.619415 453.360382,321.259583 
	C453.033264,333.522308 452.652466,345.783630 452.184692,358.500122 
z"/>
<path fill="#1D4369" opacity="1.000000" stroke="none" 
	d="
M688.879456,528.691162 
	C685.653198,526.816406 682.250183,524.704346 678.957825,522.431946 
	C671.715637,517.433350 664.529419,512.353699 657.299744,506.943848 
	C667.770386,513.847412 678.261658,521.114258 688.879456,528.691162 
z"/>
<path fill="#1D4369" opacity="1.000000" stroke="none" 
	d="
M293.622498,589.034058 
	C292.748932,591.308350 291.852997,593.922791 290.349213,596.121460 
	C285.677185,602.952393 280.783508,609.632019 275.934479,616.340454 
	C275.692352,616.675415 275.060822,616.728882 274.244629,616.922119 
	C280.359772,607.681824 286.840912,598.432922 293.622498,589.034058 
z"/>
<path fill="#23486D" opacity="1.000000" stroke="none" 
	d="
M631.833618,550.814087 
	C635.502197,552.450195 639.813171,553.758545 643.200439,556.298645 
	C647.534851,559.549011 651.205078,563.715698 654.969482,567.670349 
	C655.740723,568.480591 655.663147,570.098755 655.945496,571.734497 
	C649.067810,563.846680 641.469116,556.419739 631.833618,550.814087 
z"/>
<path fill="#23486D" opacity="1.000000" stroke="none" 
	d="
M679.415405,722.037354 
	C679.862488,720.534912 680.276001,718.579590 681.456360,717.376587 
	C687.453674,711.264343 693.649719,705.346985 700.135254,699.412109 
	C693.574707,706.952332 686.655090,714.441833 679.415405,722.037354 
z"/>
<path fill="#1D4369" opacity="1.000000" stroke="none" 
	d="
M316.163971,567.638977 
	C314.583038,570.092590 313.067627,573.084106 310.760010,575.219421 
	C305.579407,580.013184 300.005402,584.381775 294.237793,588.926392 
	C301.212677,581.882263 308.541321,574.835266 316.163971,567.638977 
z"/>
<path fill="#23486D" opacity="1.000000" stroke="none" 
	d="
M656.627197,663.049561 
	C655.853760,669.638000 644.557007,682.080505 638.279907,682.953979 
	C644.039429,676.357239 650.187805,669.787781 656.627197,663.049561 
z"/>
<path fill="#274C71" opacity="1.000000" stroke="none" 
	d="
M450.897583,443.522125 
	C450.537659,441.593536 450.269409,439.210327 449.997070,436.399536 
	C449.995911,429.124573 449.918213,422.275574 450.058929,415.431030 
	C450.093842,413.733734 450.836487,412.050995 451.603210,410.176819 
	C451.631470,421.017212 451.310364,432.042358 450.897583,443.522125 
z"/>
<path fill="#1D4369" opacity="1.000000" stroke="none" 
	d="
M332.243073,555.646545 
	C327.457977,559.584778 322.355408,563.655579 316.889038,567.574219 
	C321.658691,563.540955 326.792145,559.660034 332.243073,555.646545 
z"/>
<path fill="#1D4369" opacity="1.000000" stroke="none" 
	d="
M648.064087,502.645233 
	C641.893677,500.767853 635.641174,498.629913 629.208496,496.182373 
	C635.346252,498.043427 641.664062,500.214050 648.064087,502.645233 
z"/>
<path fill="#274C71" opacity="1.000000" stroke="none" 
	d="
M282.676514,717.973755 
	C282.996033,717.548096 283.761536,717.151917 283.887238,717.299683 
	C287.289490,721.300598 290.626221,725.357239 293.958374,729.785461 
	C290.236633,726.196533 286.530487,722.226685 282.676514,717.973755 
z"/>
<path fill="#1D4369" opacity="1.000000" stroke="none" 
	d="
M698.960938,539.649292 
	C695.703430,536.557739 692.350830,533.141846 688.998474,529.359985 
	C692.287781,532.437683 695.576843,535.881287 698.960938,539.649292 
z"/>
<path fill="#1D4369" opacity="1.000000" stroke="none" 
	d="
M707.383057,551.228149 
	C702.166626,549.884521 701.194336,544.816040 699.020752,540.317383 
	C701.777893,543.595703 704.525513,547.250000 707.383057,551.228149 
z"/>
<path fill="#23486D" opacity="1.000000" stroke="none" 
	d="
M637.441589,747.094482 
	C640.498291,745.414856 643.939453,743.720947 647.779480,742.039734 
	C644.727600,743.728333 641.276855,745.404236 637.441589,747.094482 
z"/>
<path fill="#23486D" opacity="1.000000" stroke="none" 
	d="
M659.412109,736.087097 
	C661.905396,734.155945 664.754944,732.172119 667.977356,730.275024 
	C665.489624,732.252625 662.629028,734.143494 659.412109,736.087097 
z"/>
<path fill="#23486D" opacity="1.000000" stroke="none" 
	d="
M650.451599,741.101074 
	C652.845825,739.457825 655.608215,737.775452 658.748291,736.086182 
	C656.357239,737.740112 653.588501,739.401062 650.451599,741.101074 
z"/>
<path fill="#1D4369" opacity="1.000000" stroke="none" 
	d="
M657.072144,506.380188 
	C653.520203,507.858246 650.802307,505.993469 648.183594,503.168457 
	C650.989197,503.921478 653.911987,505.014862 657.072144,506.380188 
z"/>
<path fill="#23486D" opacity="1.000000" stroke="none" 
	d="
M673.334473,726.949341 
	C674.803284,725.364258 676.596802,723.701294 678.765137,722.069824 
	C677.313110,723.691406 675.486145,725.281433 673.334473,726.949341 
z"/>
<path fill="#1D4369" opacity="1.000000" stroke="none" 
	d="
M451.013000,502.536621 
	C450.365082,501.241791 449.689758,499.522247 449.299805,497.397125 
	C449.956512,497.000153 450.327881,497.008759 450.699249,497.017395 
	C450.794739,498.715576 450.890198,500.413727 451.013000,502.536621 
z"/>
<path fill="#23486D" opacity="1.000000" stroke="none" 
	d="
M659.679565,658.115906 
	C659.163513,659.572754 658.384155,661.226990 657.242188,662.906616 
	C657.725220,661.392456 658.570740,659.852844 659.679565,658.115906 
z"/>
<path fill="#274C71" opacity="1.000000" stroke="none" 
	d="
M450.794922,496.619812 
	C450.327881,497.008759 449.956512,497.000153 449.307678,496.984192 
	C449.023926,495.921936 449.017670,494.867035 449.018677,493.416962 
	C449.391968,493.010376 449.757935,492.998962 450.398926,492.984100 
	C450.746124,494.061188 450.818359,495.141724 450.794922,496.619812 
z"/>
<path fill="#23486D" opacity="1.000000" stroke="none" 
	d="
M632.390625,749.088745 
	C633.474792,748.409119 634.923035,747.717224 636.738708,747.047424 
	C635.655701,747.738525 634.205261,748.407471 632.390625,749.088745 
z"/>
<path fill="#23486D" opacity="1.000000" stroke="none" 
	d="
M700.782715,699.231506 
	C700.814514,698.381104 701.088318,697.350891 701.913208,696.152344 
	C702.464233,695.983948 702.947083,695.985718 702.947083,695.985718 
	C702.306274,697.007751 701.665466,698.029724 700.782715,699.231506 
z"/>
<path fill="#1D4369" opacity="1.000000" stroke="none" 
	d="
M703.189575,695.825195 
	C702.947083,695.985718 702.464233,695.983948 702.222656,695.980591 
	C702.597717,695.097778 703.214355,694.218262 704.187622,693.500061 
	C704.173462,694.329163 703.802795,694.996887 703.189575,695.825195 
z"/>
<path fill="#23486D" opacity="1.000000" stroke="none" 
	d="
M668.604187,730.311035 
	C669.052734,729.649231 669.801636,728.894226 670.910645,728.193237 
	C670.481995,728.904114 669.693298,729.560974 668.604187,730.311035 
z"/>
<path fill="#1D4369" opacity="1.000000" stroke="none" 
	d="
M629.012573,495.691284 
	C628.209473,495.785736 627.308533,495.639984 626.209961,495.206482 
	C626.979797,495.096161 627.947266,495.273590 629.012573,495.691284 
z"/>
<path fill="#23486D" opacity="1.000000" stroke="none" 
	d="
M629.838257,549.600586 
	C630.302551,549.525513 630.923096,549.683105 631.526184,550.196045 
	C631.003967,550.312012 630.499268,550.072632 629.838257,549.600586 
z"/>
<path fill="#23486D" opacity="1.000000" stroke="none" 
	d="
M671.477356,728.250244 
	C671.589355,727.892212 671.990845,727.471375 672.711670,727.031616 
	C672.609619,727.404358 672.188232,727.795898 671.477356,728.250244 
z"/>
<path fill="#274C71" opacity="1.000000" stroke="none" 
	d="
M281.660919,716.584473 
	C281.916962,716.534302 282.220917,716.697937 282.423035,717.132324 
	C282.041595,717.277954 281.837463,717.076355 281.660919,716.584473 
z"/>
<path fill="#274C71" opacity="1.000000" stroke="none" 
	d="
M452.668335,359.838135 
	C452.482910,359.896149 452.265930,359.677368 452.099243,359.135376 
	C452.268066,359.121094 452.430450,359.370819 452.668335,359.838135 
z"/>
<path fill="#23486D" opacity="1.000000" stroke="none" 
	d="
M649.263916,741.930054 
	C649.126709,741.569214 649.351318,741.335999 649.905090,741.132874 
	C649.943848,741.376831 649.741028,741.675049 649.263916,741.930054 
z"/>
<path fill="#1D4369" opacity="1.000000" stroke="none" 
	d="
M704.847046,693.313599 
	C704.705688,693.087524 704.762329,692.732544 705.125122,692.359314 
	C705.417603,692.674988 705.288818,692.956238 704.847046,693.313599 
z"/>
<path fill="#FCFEFE" opacity="1.000000" stroke="none" 
	d="
M398.957947,570.916870 
	C399.130005,570.937317 399.302063,570.957703 399.766296,571.461548 
	C400.252075,583.078491 400.543274,594.211243 400.619324,605.345520 
	C400.788361,630.092102 401.121826,654.842651 400.825928,679.584900 
	C400.701050,690.025940 399.489471,700.553101 391.866516,708.900208 
	C391.866516,708.900208 391.969513,708.968079 391.594696,709.031067 
	C386.286011,712.706299 380.712524,713.760986 374.766785,713.028381 
	C369.840240,712.421326 364.936584,711.628357 360.022797,710.917786 
	C360.022797,710.917786 360.014404,710.990662 359.860809,710.664185 
	C355.664978,708.711792 351.622742,707.085815 347.580505,705.459900 
	C347.580505,705.459900 347.467224,705.462646 347.211060,705.203186 
	C345.656708,704.262817 344.358490,703.581970 343.060303,702.901123 
	C343.060303,702.901062 343.028534,702.993591 342.881104,702.684448 
	C341.191956,701.530090 339.650238,700.684998 338.108490,699.839844 
	C338.108490,699.839844 338.053284,699.945496 337.998779,699.598022 
	C333.415375,694.721619 328.886444,690.192810 324.357544,685.663940 
	C324.357544,685.663940 324.114197,685.935608 324.169220,685.518311 
	C323.637054,684.276550 323.049896,683.452026 322.462708,682.627502 
	C322.324799,682.758057 322.186920,682.888672 322.187378,682.545654 
	C322.001465,681.614014 321.677277,681.156067 321.353058,680.698059 
	C321.353058,680.698059 321.171570,680.991089 321.195740,680.490173 
	C315.744568,668.306702 315.038208,656.208191 319.319427,644.173096 
	C321.629791,637.678223 325.379761,631.695496 328.480225,625.481750 
	C328.480255,625.481750 328.445251,625.394226 328.733795,625.190430 
	C330.397156,623.024353 331.772003,621.062012 333.146851,619.099670 
	C333.146820,619.099670 333.039764,619.040649 333.324951,618.996704 
	C333.914062,618.513184 334.217987,618.073547 334.521912,617.633972 
	C334.521912,617.633972 334.565125,617.508789 334.877747,617.293335 
	C341.600159,610.920776 348.009949,604.763672 354.419739,598.606628 
	C354.419739,598.606628 354.440674,598.504089 354.741821,598.393066 
	C355.407623,597.888855 355.772247,597.495667 356.136871,597.102478 
	C356.136871,597.102478 356.038696,597.031555 356.361511,597.005859 
	C357.172211,596.353455 357.660095,595.726807 358.148010,595.100159 
	C358.148010,595.100159 358.048615,595.051331 358.400940,595.034424 
	C359.881897,594.043091 361.010498,593.068665 362.139099,592.094238 
	C362.139099,592.094238 362.040802,592.044556 362.408691,592.030457 
	C364.982697,590.550171 367.188843,589.083923 369.394958,587.617737 
	C369.394958,587.617737 369.451172,587.521423 369.812683,587.383911 
	C372.581421,585.720703 374.988678,584.195007 377.395935,582.669312 
	C377.395935,582.669312 377.498474,582.574524 377.872375,582.427368 
	C380.539795,580.885681 382.833313,579.491028 385.126831,578.096375 
	C385.126831,578.096375 385.052368,578.050781 385.356018,578.078979 
	C386.132446,577.754944 386.605255,577.402710 387.078064,577.050476 
	C387.078064,577.050476 387.019135,577.000000 387.369507,576.988892 
	C389.606812,575.861389 391.493744,574.745056 393.380646,573.628723 
	C393.380646,573.628723 393.435425,573.539246 393.775604,573.460205 
	C394.780060,572.949768 395.444336,572.518372 396.108612,572.086975 
	C396.108612,572.086975 396.036530,572.019287 396.367859,572.052429 
	C397.452087,571.695984 398.205017,571.306458 398.957947,570.916870 
z"/>
<path fill="#274C71" opacity="1.000000" stroke="none" 
	d="
M392.272156,708.932556 
	C399.489471,700.553101 400.701050,690.025940 400.825928,679.584900 
	C401.121826,654.842651 400.788361,630.092102 400.619324,605.345520 
	C400.543274,594.211243 400.252075,583.078491 400.025635,571.478455 
	C400.651062,571.800415 401.440308,572.518433 401.917694,573.404358 
	C402.197205,573.923096 401.978485,574.709778 401.985443,575.375916 
	C402.319458,607.311768 402.813416,639.247375 402.878174,671.183777 
	C402.894867,679.422180 401.898956,687.712463 400.706665,695.882324 
	C400.126740,699.855957 398.207214,703.693726 396.475769,707.397400 
	C396.048248,708.311829 393.987701,708.462891 392.272156,708.932556 
z"/>
<path fill="#274C71" opacity="1.000000" stroke="none" 
	d="
M328.120819,625.432678 
	C325.379761,631.695496 321.629791,637.678223 319.319427,644.173096 
	C315.038208,656.208191 315.744568,668.306702 321.303986,680.356079 
	C319.732697,678.065918 317.277466,675.606201 316.564545,672.716675 
	C313.903290,661.930420 314.036316,651.063171 318.748413,640.810913 
	C321.223694,635.425293 324.723999,630.510803 328.120819,625.432678 
z"/>
<path fill="#274C71" opacity="1.000000" stroke="none" 
	d="
M360.224182,711.222656 
	C364.936584,711.628357 369.840240,712.421326 374.766785,713.028381 
	C380.712524,713.760986 386.286011,712.706299 391.562561,708.978455 
	C390.221375,710.415771 388.770142,712.856812 386.813660,713.369446 
	C377.894958,715.706299 368.975220,715.633301 360.224182,711.222656 
z"/>
<path fill="#274C71" opacity="1.000000" stroke="none" 
	d="
M354.070496,598.452881 
	C348.009949,604.763672 341.600159,610.920776 334.933350,617.257446 
	C334.580536,616.809692 334.174438,615.841675 334.434326,615.604980 
	C340.820435,609.789307 347.277191,604.051147 354.070496,598.452881 
z"/>
<path fill="#274C71" opacity="1.000000" stroke="none" 
	d="
M324.276062,686.033997 
	C328.886444,690.192810 333.415375,694.721619 338.050781,699.568848 
	C331.426056,697.543762 326.493744,693.337280 324.276062,686.033997 
z"/>
<path fill="#274C71" opacity="1.000000" stroke="none" 
	d="
M347.503693,705.825073 
	C351.622742,707.085815 355.664978,708.711792 359.891968,710.644775 
	C355.860107,709.364685 351.643494,707.777527 347.503693,705.825073 
z"/>
<path fill="#274C71" opacity="1.000000" stroke="none" 
	d="
M377.033264,582.502014 
	C374.988678,584.195007 372.581421,585.720703 369.868347,587.380371 
	C369.693970,582.716736 373.630463,583.140747 377.033264,582.502014 
z"/>
<path fill="#274C71" opacity="1.000000" stroke="none" 
	d="
M369.029297,587.446594 
	C367.188843,589.083923 364.982697,590.550171 362.434723,592.078979 
	C364.283112,590.519531 366.473358,588.897522 369.029297,587.446594 
z"/>
<path fill="#274C71" opacity="1.000000" stroke="none" 
	d="
M384.743622,578.062622 
	C382.833313,579.491028 380.539795,580.885681 377.938629,582.405396 
	C379.874115,581.029907 382.117249,579.529358 384.743622,578.062622 
z"/>
<path fill="#274C71" opacity="1.000000" stroke="none" 
	d="
M332.782349,619.097656 
	C331.772003,621.062012 330.397156,623.024353 328.780945,625.190674 
	C329.832275,623.294922 331.125061,621.195251 332.782349,619.097656 
z"/>
<path fill="#274C71" opacity="1.000000" stroke="none" 
	d="
M393.030151,573.465332 
	C391.493744,574.745056 389.606812,575.861389 387.379272,577.026428 
	C388.918976,575.817383 390.799316,574.559692 393.030151,573.465332 
z"/>
<path fill="#274C71" opacity="1.000000" stroke="none" 
	d="
M338.126678,700.203918 
	C339.650238,700.684998 341.191956,701.530090 342.917053,702.651245 
	C341.448547,702.140808 339.796722,701.354431 338.126678,700.203918 
z"/>
<path fill="#274C71" opacity="1.000000" stroke="none" 
	d="
M361.776367,592.096802 
	C361.010498,593.068665 359.881897,594.043091 358.426117,595.083740 
	C359.203857,594.133057 360.308716,593.116211 361.776367,592.096802 
z"/>
<path fill="#274C71" opacity="1.000000" stroke="none" 
	d="
M343.091827,703.266418 
	C344.358490,703.581970 345.656708,704.262817 347.176331,705.158447 
	C345.972931,704.792664 344.548157,704.212219 343.091827,703.266418 
z"/>
<path fill="#274C71" opacity="1.000000" stroke="none" 
	d="
M322.347534,682.981934 
	C323.049896,683.452026 323.637054,684.276550 324.306671,685.398499 
	C323.670197,684.909363 322.951294,684.122864 322.347534,682.981934 
z"/>
<path fill="#274C71" opacity="1.000000" stroke="none" 
	d="
M398.779022,570.690918 
	C398.205017,571.306458 397.452087,571.695984 396.378235,572.100769 
	C396.904938,571.565613 397.752502,571.015320 398.779022,570.690918 
z"/>
<path fill="#274C71" opacity="1.000000" stroke="none" 
	d="
M357.804504,595.114014 
	C357.660095,595.726807 357.172211,596.353455 356.388916,597.059814 
	C356.549377,596.468994 357.005188,595.798462 357.804504,595.114014 
z"/>
<path fill="#274C71" opacity="1.000000" stroke="none" 
	d="
M395.737915,572.055115 
	C395.444336,572.518372 394.780060,572.949768 393.826263,573.473877 
	C394.146881,573.052124 394.757050,572.537720 395.737915,572.055115 
z"/>
<path fill="#274C71" opacity="1.000000" stroke="none" 
	d="
M334.198700,617.561157 
	C334.217987,618.073547 333.914062,618.513184 333.358002,619.048096 
	C333.362427,618.591675 333.618958,618.039978 334.198700,617.561157 
z"/>
<path fill="#274C71" opacity="1.000000" stroke="none" 
	d="
M355.800262,597.102051 
	C355.772247,597.495667 355.407623,597.888855 354.793823,598.399292 
	C354.850952,598.044922 355.157318,597.573303 355.800262,597.102051 
z"/>
<path fill="#274C71" opacity="1.000000" stroke="none" 
	d="
M386.761139,577.044495 
	C386.605255,577.402710 386.132446,577.754944 385.354340,578.122681 
	C385.514099,577.771545 385.979156,577.405029 386.761139,577.044495 
z"/>
<path fill="#274C71" opacity="1.000000" stroke="none" 
	d="
M321.271667,681.040710 
	C321.677277,681.156067 322.001465,681.614014 322.397644,682.351440 
	C322.043121,682.215027 321.616699,681.799194 321.271667,681.040710 
z"/>
<path fill="#FEFEFE" opacity="1.000000" stroke="none" 
	d="
M698.881836,300.013702 
	C698.947266,302.380341 699.012695,304.746979 698.583984,307.553406 
	C695.656067,308.331909 693.080078,308.285461 690.828674,309.117493 
	C688.568420,309.952728 685.180359,311.427063 684.916016,313.049652 
	C684.575989,315.136780 686.740051,317.718567 688.054443,319.952545 
	C688.727417,321.096375 689.899170,321.946777 690.845459,322.929810 
	C689.624878,323.707520 688.067261,324.234772 687.260742,325.320160 
	C685.969543,327.057770 684.339905,329.195068 684.407593,331.108429 
	C684.475525,333.029694 684.830505,337.022156 689.060669,334.805847 
	C690.435608,334.829742 691.810608,334.853668 693.635742,335.292358 
	C695.664612,336.811584 697.243164,337.915955 698.821777,339.020355 
	C698.911987,341.385956 699.002197,343.751556 698.713867,346.601746 
	C696.388855,350.332428 698.462646,351.292542 701.093079,351.936188 
	C701.093079,351.936188 701.015137,351.989441 701.083252,352.180664 
	C701.295166,352.674744 701.525330,352.881653 701.841736,352.992584 
	C701.841736,352.992584 702.105225,353.272461 702.080688,353.887177 
	C701.699646,358.376862 702.905518,361.178558 707.138733,361.900543 
	C707.138733,361.900543 707.049561,361.972961 707.102844,362.158203 
	C707.289795,362.656921 707.516418,362.872772 707.835938,362.991028 
	C707.835938,362.991028 708.095154,363.288544 708.072083,363.898682 
	C710.990784,370.305817 713.652222,376.270874 716.986206,381.832825 
	C718.799133,384.857178 721.755005,387.196411 724.195374,389.844666 
	C724.195374,389.844666 724.126465,390.007446 724.090576,390.312805 
	C724.584595,392.892944 725.114563,395.167725 725.644470,397.442535 
	C725.268982,397.613678 724.893433,397.784821 724.517944,397.955994 
	C723.064087,395.684296 721.819397,393.236145 720.095703,391.192017 
	C718.471497,389.265961 716.491150,386.534576 714.410706,386.283356 
	C703.292419,384.940674 692.334961,386.152039 682.000671,390.770386 
	C680.386597,391.491699 679.304321,393.403015 677.658936,394.880981 
	C676.893921,394.998352 676.446167,394.998779 675.710571,394.700378 
	C672.478760,394.268616 669.438965,394.555420 666.612244,393.909546 
	C661.733826,392.794891 656.739807,391.575836 652.371033,389.295593 
	C651.353455,388.764526 652.650879,383.798248 652.883118,380.872650 
	C652.883118,380.872650 652.937988,381.005737 653.275452,380.948120 
	C654.389709,379.239014 655.166504,377.587494 655.943237,375.935974 
	C655.943237,375.935974 655.994995,376.001984 656.318970,375.944061 
	C657.077393,374.900726 657.511902,373.915344 657.946350,372.929932 
	C657.946350,372.929932 657.993225,372.998718 658.320923,372.944397 
	C659.058960,371.882507 659.469360,370.874908 659.879761,369.867340 
	C659.879761,369.867340 659.945068,370.001923 660.252258,369.944702 
	C662.708313,365.928711 664.857178,361.969971 667.005981,358.011230 
	C666.989563,357.678497 667.088684,357.384766 667.886719,357.015411 
	C669.568970,355.991211 671.329956,355.266846 671.645630,354.138214 
	C672.707031,350.344666 673.808594,346.419312 673.894836,342.522308 
	C674.170959,330.046814 674.232605,317.554871 673.887390,305.082855 
	C673.741150,299.798340 676.554993,297.994537 680.727661,298.127594 
	C686.792908,298.321014 692.831726,299.344299 698.881836,300.013702 
z"/>
<path fill="#FEEEE7" opacity="1.000000" stroke="none" 
	d="
M677.976196,394.764069 
	C679.304321,393.403015 680.386597,391.491699 682.000671,390.770386 
	C692.334961,386.152039 703.292419,384.940674 714.410706,386.283356 
	C716.491150,386.534576 718.471497,389.265961 720.095703,391.192017 
	C721.819397,393.236145 723.064087,395.684296 724.517944,397.955994 
	C724.893433,397.784821 725.268982,397.613678 725.644470,397.442535 
	C725.114563,395.167725 724.584595,392.892944 724.108032,390.226196 
	C730.478943,399.991241 737.350098,409.852692 742.970947,420.381653 
	C749.656128,432.904449 741.407532,446.126190 727.169983,446.232544 
	C699.838440,446.436737 672.503418,446.416565 645.171631,446.230713 
	C629.300415,446.122833 621.482178,432.127777 629.582581,418.291351 
	C636.901611,405.789429 644.713318,393.575897 652.595459,381.053894 
	C652.650879,383.798248 651.353455,388.764526 652.371033,389.295593 
	C656.739807,391.575836 661.733826,392.794891 666.612244,393.909546 
	C669.438965,394.555420 672.478760,394.268616 675.381470,394.943115 
	C668.012695,394.953796 660.685120,394.422913 652.196899,393.807922 
	C647.134583,402.194916 640.903992,411.819061 635.398376,421.841522 
	C630.235107,431.240845 635.687012,439.882416 646.429871,439.906982 
	C672.225159,439.965973 698.020935,439.958008 723.816162,439.871674 
	C737.121948,439.827148 741.901917,431.246185 735.060364,419.591156 
	C729.588684,410.269714 723.968018,401.024323 718.031311,391.996490 
	C716.784668,390.100800 713.998535,388.517242 711.700073,388.139648 
	C703.479187,386.789154 695.512756,388.216705 687.822571,391.479248 
	C684.647400,392.826324 681.264587,393.683899 677.976196,394.764069 
z"/>
<path fill="#FEEEE7" opacity="1.000000" stroke="none" 
	d="
M698.978271,299.599243 
	C692.831726,299.344299 686.792908,298.321014 680.727661,298.127594 
	C676.554993,297.994537 673.741150,299.798340 673.887390,305.082855 
	C674.232605,317.554871 674.170959,330.046814 673.894836,342.522308 
	C673.808594,346.419312 672.707031,350.344666 671.645630,354.138214 
	C671.329956,355.266846 669.568970,355.991211 668.083008,356.882629 
	C672.312927,350.383881 672.408020,343.016907 672.257141,335.456421 
	C672.028564,323.999329 672.341919,312.532104 672.179810,301.072632 
	C672.129822,297.539307 672.941406,295.918427 676.851379,296.098267 
	C682.984436,296.380371 689.140137,296.187744 695.286133,296.159332 
	C697.404968,296.149536 699.459290,296.110046 698.978271,299.599243 
z"/>
<path fill="#FEEEE7" opacity="1.000000" stroke="none" 
	d="
M688.855103,334.553467 
	C684.830505,337.022156 684.475525,333.029694 684.407593,331.108429 
	C684.339905,329.195068 685.969543,327.057770 687.260742,325.320160 
	C688.067261,324.234772 689.624878,323.707520 690.845459,322.929810 
	C689.899170,321.946777 688.727417,321.096375 688.054443,319.952545 
	C686.740051,317.718567 684.575989,315.136780 684.916016,313.049652 
	C685.180359,311.427063 688.568420,309.952728 690.828674,309.117493 
	C693.080078,308.285461 695.656067,308.331909 698.504395,307.990906 
	C698.048462,308.953400 697.319458,310.502228 696.276245,310.755310 
	C694.394714,311.211731 692.208862,310.493500 690.372009,311.028076 
	C688.981689,311.432617 686.822449,313.239227 686.977783,314.038361 
	C687.268250,315.532196 688.797363,317.585815 690.158936,317.900208 
	C692.802490,318.510559 695.686707,318.078796 698.789307,318.078796 
	C698.789307,321.170868 698.789307,323.737793 698.789307,327.095612 
	C696.333923,327.095612 693.881897,326.838074 691.518799,327.185516 
	C689.923706,327.420074 687.464539,328.230499 687.170227,329.281342 
	C686.771545,330.704895 688.075745,332.605286 688.855103,334.553467 
z"/>
<path fill="#FEEEE7" opacity="1.000000" stroke="none" 
	d="
M724.135742,389.500061 
	C721.755005,387.196411 718.799133,384.857178 716.986206,381.832825 
	C713.652222,376.270874 710.990784,370.305817 708.100830,364.093872 
	C713.460449,372.171143 718.768311,380.663300 724.135742,389.500061 
z"/>
<path fill="#FEEEE7" opacity="1.000000" stroke="none" 
	d="
M666.713501,358.180573 
	C664.857178,361.969971 662.708313,365.928711 660.203247,369.888184 
	C662.038391,366.042542 664.229675,362.196228 666.713501,358.180573 
z"/>
<path fill="#FEEEE7" opacity="1.000000" stroke="none" 
	d="
M707.101562,361.552673 
	C702.905518,361.178558 701.699646,358.376862 702.110229,354.077087 
	C703.797729,356.169800 705.431091,358.687286 707.101562,361.552673 
z"/>
<path fill="#FEEEE7" opacity="1.000000" stroke="none" 
	d="
M698.919067,338.605927 
	C697.243164,337.915955 695.664612,336.811584 694.039429,335.379608 
	C696.517029,334.739044 699.472473,333.735931 698.919067,338.605927 
z"/>
<path fill="#FEEEE7" opacity="1.000000" stroke="none" 
	d="
M701.059692,351.598755 
	C698.462646,351.292542 696.388855,350.332428 698.658447,347.042969 
	C699.663086,348.420227 700.344727,349.840790 701.059692,351.598755 
z"/>
<path fill="#FEEEE7" opacity="1.000000" stroke="none" 
	d="
M655.656250,376.100830 
	C655.166504,377.587494 654.389709,379.239014 653.231323,380.891235 
	C653.689575,379.349884 654.529419,377.807770 655.656250,376.100830 
z"/>
<path fill="#FEEEE7" opacity="1.000000" stroke="none" 
	d="
M657.659546,373.063477 
	C657.511902,373.915344 657.077393,374.900726 656.286255,375.917542 
	C656.410645,375.031586 656.891663,374.114288 657.659546,373.063477 
z"/>
<path fill="#FEEEE7" opacity="1.000000" stroke="none" 
	d="
M659.597778,370.012939 
	C659.469360,370.874908 659.058960,371.882507 658.286499,372.920959 
	C658.388245,372.020721 658.852051,371.089630 659.597778,370.012939 
z"/>
<path fill="#FEEEE7" opacity="1.000000" stroke="none" 
	d="
M701.829041,352.743774 
	C701.525330,352.881653 701.295166,352.674744 701.104797,352.138672 
	C701.420776,351.960754 701.673462,352.157257 701.829041,352.743774 
z"/>
<path fill="#FEEEE7" opacity="1.000000" stroke="none" 
	d="
M707.836853,362.737213 
	C707.516418,362.872772 707.289795,362.656921 707.123047,362.104431 
	C707.339172,362.071411 707.588501,362.277405 707.836853,362.737213 
z"/>
<path fill="#D65539" opacity="1.000000" stroke="none" 
	d="
M677.658936,394.880981 
	C681.264587,393.683899 684.647400,392.826324 687.822571,391.479248 
	C695.512756,388.216705 703.479187,386.789154 711.700073,388.139648 
	C713.998535,388.517242 716.784668,390.100800 718.031311,391.996490 
	C723.968018,401.024323 729.588684,410.269714 735.060364,419.591156 
	C741.901917,431.246185 737.121948,439.827148 723.816162,439.871674 
	C698.020935,439.958008 672.225159,439.965973 646.429871,439.906982 
	C635.687012,439.882416 630.235107,431.240845 635.398376,421.841522 
	C640.903992,411.819061 647.134583,402.194916 652.196899,393.807922 
	C660.685120,394.422913 668.012695,394.953796 675.669312,395.241943 
	C676.446167,394.998779 676.893921,394.998352 677.658936,394.880981 
z"/>
</svg>